<svg width="16" height="16" viewBox="0 0 16 16" fill="none" xmlns="http://www.w3.org/2000/svg">
<rect x="16" y="16" width="16" height="16" rx="8" transform="rotate(-180 16 16)" fill="white" fill-opacity="0.15"/>
<path fill-rule="evenodd" clip-rule="evenodd" d="M10.5154 6.7655C10.4806 6.80042 10.4392 6.82813 10.3937 6.84704C10.3481 6.86594 10.2993 6.87567 10.2499 6.87567C10.2006 6.87567 10.1518 6.86594 10.1062 6.84704C10.0607 6.82813 10.0193 6.80042 9.98444 6.7655L7.99994 4.78025L6.01544 6.7655C5.94503 6.83592 5.84952 6.87547 5.74994 6.87547C5.65036 6.87547 5.55486 6.83592 5.48444 6.7655C5.41403 6.69509 5.37447 6.59958 5.37447 6.5C5.37447 6.40042 5.41403 6.30492 5.48444 6.2345L7.73444 3.9845C7.76928 3.94958 7.81066 3.92187 7.85622 3.90297C7.90177 3.88406 7.95062 3.87433 7.99994 3.87433C8.04927 3.87433 8.09811 3.88406 8.14367 3.90297C8.18923 3.92187 8.23061 3.94958 8.26544 3.9845L10.5154 6.2345C10.5504 6.26934 10.5781 6.31072 10.597 6.35628C10.6159 6.40184 10.6256 6.45068 10.6256 6.5C10.6256 6.54933 10.6159 6.59817 10.597 6.64373C10.5781 6.68928 10.5504 6.73067 10.5154 6.7655Z" fill="white"/>
<path fill-rule="evenodd" clip-rule="evenodd" d="M8 12.125C7.90054 12.125 7.80516 12.0855 7.73483 12.0152C7.66451 11.9448 7.625 11.8495 7.625 11.75L7.625 5C7.625 4.90054 7.66451 4.80516 7.73484 4.73483C7.80516 4.66451 7.90054 4.625 8 4.625C8.09946 4.625 8.19484 4.66451 8.26517 4.73483C8.33549 4.80516 8.375 4.90054 8.375 5L8.375 11.75C8.375 11.8495 8.33549 11.9448 8.26516 12.0152C8.19484 12.0855 8.09946 12.125 8 12.125Z" fill="white"/>
</svg>
