<svg width="16" height="16" viewBox="0 0 16 16" fill="none" xmlns="http://www.w3.org/2000/svg">
<rect width="16" height="16" rx="8" fill="white" fill-opacity="0.15"/>
<path fill-rule="evenodd" clip-rule="evenodd" d="M5.48456 9.2345C5.51939 9.19958 5.56078 9.17187 5.60633 9.15296C5.65189 9.13406 5.70073 9.12433 5.75006 9.12433C5.79939 9.12433 5.84823 9.13406 5.89378 9.15296C5.93934 9.17187 5.98073 9.19958 6.01556 9.2345L8.00006 11.2197L9.98456 9.2345C10.055 9.16408 10.1505 9.12453 10.2501 9.12453C10.3496 9.12453 10.4451 9.16408 10.5156 9.2345C10.586 9.30491 10.6255 9.40042 10.6255 9.5C10.6255 9.59958 10.586 9.69508 10.5156 9.7655L8.26556 12.0155C8.23073 12.0504 8.18934 12.0781 8.14378 12.097C8.09823 12.1159 8.04938 12.1257 8.00006 12.1257C7.95073 12.1257 7.90189 12.1159 7.85633 12.097C7.81078 12.0781 7.76939 12.0504 7.73456 12.0155L5.48456 9.7655C5.44964 9.73066 5.42193 9.68928 5.40303 9.64372C5.38412 9.59816 5.37439 9.54932 5.37439 9.5C5.37439 9.45067 5.38412 9.40183 5.40303 9.35627C5.42193 9.31072 5.44964 9.26933 5.48456 9.2345Z" fill="white"/>
<path fill-rule="evenodd" clip-rule="evenodd" d="M8 3.875C8.09946 3.875 8.19484 3.91451 8.26517 3.98484C8.33549 4.05516 8.375 4.15054 8.375 4.25V11C8.375 11.0995 8.33549 11.1948 8.26517 11.2652C8.19484 11.3355 8.09946 11.375 8 11.375C7.90054 11.375 7.80516 11.3355 7.73484 11.2652C7.66451 11.1948 7.625 11.0995 7.625 11L7.625 4.25C7.625 4.15054 7.66451 4.05516 7.73484 3.98484C7.80516 3.91451 7.90054 3.875 8 3.875Z" fill="white"/>
</svg>
