<svg width="30" height="30" viewBox="0 0 30 30" fill="none" xmlns="http://www.w3.org/2000/svg">
<path d="M10.4919 10.4922C11.0452 9.939 11.9421 9.939 12.4954 10.4922L14.9998 12.9966L17.5043 10.4921C18.0575 9.9389 18.9545 9.9389 19.5077 10.4921C20.061 11.0454 20.061 11.9424 19.5077 12.4956L17.0033 15.0001L19.5075 17.5044C20.0608 18.0576 20.0608 18.9546 19.5075 19.5079C18.9543 20.0611 18.0573 20.0611 17.5041 19.5079L14.9998 17.0036L12.4956 19.5078C11.9424 20.061 11.0454 20.061 10.4921 19.5078C9.93889 18.9545 9.93889 18.0575 10.4921 17.5043L12.9963 15.0001L10.4919 12.4957C9.93868 11.9425 9.93868 11.0455 10.4919 10.4922Z" fill="#464A54"/>
<path fill-rule="evenodd" clip-rule="evenodd" d="M15 29.1666C22.8241 29.1666 29.1667 22.824 29.1667 15C29.1667 7.17595 22.8241 0.833313 15 0.833313C7.17601 0.833313 0.833374 7.17595 0.833374 15C0.833374 22.824 7.17601 29.1666 15 29.1666ZM15 26.3333C21.2593 26.3333 26.3334 21.2592 26.3334 15C26.3334 8.74075 21.2593 3.66665 15 3.66665C8.74081 3.66665 3.66671 8.74075 3.66671 15C3.66671 21.2592 8.74081 26.3333 15 26.3333Z" fill="#464A54"/>
</svg>
