<svg width="24" height="24" viewBox="0 0 24 24" fill="none" xmlns="http://www.w3.org/2000/svg">
<path fill-rule="evenodd" clip-rule="evenodd" d="M14.8787 3.70711C16.0503 2.53554 17.9498 2.53554 19.1214 3.70711L20.2929 4.87868C21.4645 6.05026 21.4645 7.94975 20.2929 9.12132L9.13533 20.2789C8.71653 20.6977 8.18314 20.9832 7.60236 21.0993L4.66703 21.6864C3.26758 21.9663 2.03374 20.7325 2.31363 19.333L2.9007 16.3977C3.01685 15.8169 3.30232 15.2835 3.72112 14.8647L14.8787 3.70711ZM17.7071 5.12132C17.3166 4.7308 16.6835 4.7308 16.2929 5.12132L5.13533 16.2789C4.99573 16.4185 4.90058 16.5963 4.86186 16.7899L4.27479 19.7252L7.21013 19.1382C7.40372 19.0995 7.58152 19.0043 7.72112 18.8647L18.8787 7.70711C19.2692 7.31658 19.2692 6.68342 18.8787 6.2929L17.7071 5.12132Z" fill="white"/>
<path fill-rule="evenodd" clip-rule="evenodd" d="M14 21C14 20.4477 14.4478 20 15 20H20C20.5523 20 21 20.4477 21 21C21 21.5523 20.5523 22 20 22H15C14.4478 22 14 21.5523 14 21Z" fill="white"/>
</svg>
