<svg width="24" height="24" viewBox="0 0 24 24" fill="none" xmlns="http://www.w3.org/2000/svg">
<path fill-rule="evenodd" clip-rule="evenodd" d="M12 2C8.61918 2 5.41874 2.74582 2.57633 4.07528C2.3244 4.19312 2.13292 4.41056 2.04788 4.67537C1.96285 4.94018 1.99195 5.22844 2.12818 5.47092L11.1282 21.4898C11.3052 21.8049 11.6385 22 12 22C12.3615 22 12.6948 21.8049 12.8718 21.4898L21.8718 5.47092C22.0081 5.22844 22.0372 4.94018 21.9521 4.67537C21.8671 4.41056 21.6756 4.19312 21.4237 4.07528C18.5813 2.74582 15.3808 2 12 2ZM6.02453 8.32283L4.41401 5.45631C6.73977 4.51966 9.30361 4 12 4C14.6964 4 17.2602 4.51966 19.586 5.45631L17.9755 8.32275C16.126 7.47035 14.1107 7 12.0001 7C9.88947 7 7.87407 7.47038 6.02453 8.32283ZM7.00778 10.0729L7.88568 11.6354C8.43788 11.0906 8.77844 10.335 8.77844 9.5C8.77844 9.47891 8.77822 9.45788 8.77779 9.4369C8.1731 9.60377 7.58225 9.81674 7.00778 10.0729ZM12 18.9584L8.8865 13.4168C10.0377 12.5021 10.7784 11.0877 10.7784 9.5C10.7784 9.35308 10.7721 9.20752 10.7596 9.0636C11.1687 9.02147 11.5824 9 12.0001 9C12.3389 9 12.6752 9.01413 13.0084 9.04195C12.3849 9.67395 12 10.542 12 11.5C12 13.0247 12.975 14.3217 14.3355 14.8016L12 18.9584ZM15.3517 12.9928L16.6978 10.5969C16.4223 10.2324 15.9885 10 15.5 10C14.6716 10 14 10.6716 14 11.5C14 12.2784 14.5929 12.9183 15.3517 12.9928Z" fill="#00B495"/>
</svg>
