<svg width="24" height="24" viewBox="0 0 24 24" fill="none" xmlns="http://www.w3.org/2000/svg">
<path fill-rule="evenodd" clip-rule="evenodd" d="M6 21C4.34315 21 3 19.6569 3 18V9.34828C3 9.0431 3.13935 8.75464 3.3784 8.56494L10.1352 3.20322C11.2274 2.33656 12.7726 2.33656 13.8648 3.20322L20.6216 8.56494C20.8607 8.75464 21 9.0431 21 9.34828V18C21 19.6569 19.6569 21 18 21H6ZM11.3784 4.76989C11.7425 4.481 12.2575 4.481 12.6216 4.76989L19 9.83134V18C19 18.5523 18.5523 19 18 19H15.5V14.5C15.5 12.567 13.933 11 12 11C10.067 11 8.5 12.567 8.5 14.5V19H6C5.44772 19 5 18.5523 5 18V9.83134L11.3784 4.76989ZM10.5 19H13.5V14.5C13.5 13.6716 12.8284 13 12 13C11.1716 13 10.5 13.6716 10.5 14.5V19Z" fill="#464A54"/>
</svg>
