<svg width="18" height="20" viewBox="0 0 18 20" fill="none" xmlns="http://www.w3.org/2000/svg">
<path fill-rule="evenodd" clip-rule="evenodd" d="M9.29541 1.07967C9.80571 1.16175 10.2972 1.30568 10.7611 1.50421C10.4634 2.10472 10.2959 2.78118 10.2954 3.49671C9.69538 3.17844 9.01328 3 8.29565 3C6.24011 3 4.47607 4.46403 4.09726 6.48436L2.72263 13.8157C2.60724 14.4311 3.07936 15 3.7055 15H5.29541H11.2954H12.8858C13.5119 15 13.9841 14.4311 13.8687 13.8157L12.6793 7.47241C13.3101 7.80913 14.0305 8 14.7954 8L14.8131 7.99997L15.8344 13.4471C16.1806 15.2934 14.7642 17 12.8858 17H12.1694C11.7253 18.7252 10.1592 20 8.29541 20C6.43157 20 4.86547 18.7252 4.42143 17H3.7055C1.82709 17 0.410715 15.2934 0.756886 13.4471L2.13151 6.11578C2.62511 3.48328 4.72056 1.49409 7.29541 1.07975V1C7.29541 0.447715 7.74313 0 8.29541 0C8.84769 0 9.29541 0.447715 9.29541 1V1.07967ZM8.29541 18C9.03569 18 9.68204 17.5978 10.0278 17H6.56297C6.90878 17.5978 7.55513 18 8.29541 18ZM14.7954 6C16.1761 6 17.2954 4.88071 17.2954 3.5C17.2954 2.11929 16.1761 1 14.7954 1C13.4147 1 12.2954 2.11929 12.2954 3.5C12.2954 4.88071 13.4147 6 14.7954 6Z" fill="#034DBB"/>
</svg>
