<svg width="24" height="24" viewBox="0 0 24 24" fill="none" xmlns="http://www.w3.org/2000/svg">
<path fill-rule="evenodd" clip-rule="evenodd" d="M18.5 2C16.6069 2 15.0648 3.50305 15.002 5.3809L7.55263 9.10558C7.53648 9.11366 7.52064 9.12211 7.50513 9.13093C6.93724 8.73331 6.24587 8.5 5.5 8.5C3.567 8.5 2 10.067 2 12C2 13.933 3.567 15.5 5.5 15.5C6.24592 15.5 6.93734 15.2667 7.50525 14.869C7.52083 14.8778 7.53673 14.8863 7.55294 14.8944L15.002 18.619C15.0647 20.4969 16.6068 22 18.5 22C20.433 22 22 20.433 22 18.5C22 16.567 20.433 15 18.5 15C17.2475 15 16.1487 15.6579 15.5302 16.647L8.7647 13.2642C8.91666 12.8721 9 12.4458 9 12C9 11.5542 8.91664 11.1278 8.76466 10.7356L15.5301 7.3529C16.1486 8.34204 17.2474 9 18.5 9C20.433 9 22 7.433 22 5.5C22 3.567 20.433 2 18.5 2ZM17 5.5C17 4.67157 17.6716 4 18.5 4C19.3284 4 20 4.67157 20 5.5C20 6.32843 19.3284 7 18.5 7C17.6716 7 17 6.32843 17 5.5ZM5.5 10.5C4.67157 10.5 4 11.1716 4 12C4 12.8284 4.67157 13.5 5.5 13.5C6.32843 13.5 7 12.8284 7 12C7 11.1716 6.32843 10.5 5.5 10.5ZM18.5 17C17.6716 17 17 17.6716 17 18.5C17 19.3284 17.6716 20 18.5 20C19.3284 20 20 19.3284 20 18.5C20 17.6716 19.3284 17 18.5 17Z" fill="white"/>
</svg>
