<svg width="20" height="20" viewBox="0 0 20 20" fill="none" xmlns="http://www.w3.org/2000/svg">
<path d="M9 3C9 3.55228 9.44771 4 10 4C10.5523 4 11 3.55228 11 3V1C11 0.447715 10.5523 0 10 0C9.44772 0 9 0.447715 9 1V3Z" fill="#464A54"/>
<path fill-rule="evenodd" clip-rule="evenodd" d="M5 10C5 7.23858 7.23858 5 10 5C12.7614 5 15 7.23858 15 10C15 12.7614 12.7614 15 10 15C7.23858 15 5 12.7614 5 10ZM10 7C8.34315 7 7 8.34315 7 10C7 11.6569 8.34315 13 10 13C11.6569 13 13 11.6569 13 10C13 8.34315 11.6569 7 10 7Z" fill="#464A54"/>
<path d="M0 10C0 9.44771 0.447715 9 1 9H3C3.55228 9 4 9.44771 4 10C4 10.5523 3.55228 11 3 11H1C0.447715 11 0 10.5523 0 10Z" fill="#464A54"/>
<path d="M17 9C16.4477 9 16 9.44771 16 10C16 10.5523 16.4477 11 17 11H19C19.5523 11 20 10.5523 20 10C20 9.44772 19.5523 9 19 9H17Z" fill="#464A54"/>
<path d="M10 20C9.44771 20 9 19.5523 9 19V17C9 16.4477 9.44771 16 10 16C10.5523 16 11 16.4477 11 17V19C11 19.5523 10.5523 20 10 20Z" fill="#464A54"/>
<path d="M2.92912 2.92894C3.31965 2.53841 3.95281 2.53841 4.34334 2.92894L5.75755 4.34315C6.14808 4.73368 6.14808 5.36684 5.75755 5.75737C5.36703 6.14789 4.73386 6.14789 4.34334 5.75737L2.92912 4.34315C2.5386 3.95263 2.5386 3.31946 2.92912 2.92894Z" fill="#464A54"/>
<path d="M15.6568 14.2427C15.2663 13.8521 14.6331 13.8521 14.2426 14.2427C13.8521 14.6332 13.8521 15.2663 14.2426 15.6569L15.6568 17.0711C16.0473 17.4616 16.6805 17.4616 17.071 17.0711C17.4616 16.6806 17.4616 16.0474 17.071 15.6569L15.6568 14.2427Z" fill="#464A54"/>
<path d="M2.92927 17.0711C2.53875 16.6806 2.53875 16.0474 2.92927 15.6569L4.34349 14.2427C4.73401 13.8521 5.36718 13.8521 5.7577 14.2427C6.14823 14.6332 6.14823 15.2664 5.7577 15.6569L4.34349 17.0711C3.95296 17.4616 3.3198 17.4616 2.92927 17.0711Z" fill="#464A54"/>
<path d="M14.2428 4.34316C13.8522 4.73368 13.8522 5.36685 14.2428 5.75737C14.6333 6.14789 15.2664 6.14789 15.657 5.75737L17.0712 4.34316C17.4617 3.95263 17.4617 3.31947 17.0712 2.92894C16.6807 2.53842 16.0475 2.53842 15.657 2.92894L14.2428 4.34316Z" fill="#464A54"/>
</svg>
