<svg width="24" height="24" viewBox="0 0 24 24" fill="none" xmlns="http://www.w3.org/2000/svg">
<path fill-rule="evenodd" clip-rule="evenodd" d="M12 9C10.3431 9 9 10.3431 9 12C9 13.6569 10.3431 15 12 15C13.6569 15 15 13.6569 15 12C15 10.3431 13.6569 9 12 9ZM11 12C11 11.4477 11.4477 11 12 11C12.5523 11 13 11.4477 13 12C13 12.5523 12.5523 13 12 13C11.4477 13 11 12.5523 11 12Z" fill="#464A54"/>
<path fill-rule="evenodd" clip-rule="evenodd" d="M12 5.5C7.70398 5.5 3.98494 7.96296 2.17467 11.5493C2.03163 11.8327 2.03162 12.1671 2.17466 12.4505C3.9849 16.0369 7.70399 18.5 12.0001 18.5C16.2962 18.5 20.0152 16.037 21.8255 12.4507C21.9686 12.1673 21.9686 11.8329 21.8255 11.5495C20.0153 7.96306 16.2962 5.5 12 5.5ZM12.0001 16.5C8.67031 16.5 5.76121 14.6918 4.20392 11.9999C5.76124 9.30808 8.67029 7.5 12 7.5C15.3299 7.5 18.239 9.30816 19.7963 12.0001C18.2389 14.6919 15.3299 16.5 12.0001 16.5Z" fill="#464A54"/>
</svg>
